<?xml version="1.0" encoding="UTF-8" standalone="no"?>
<svg
  width="37.751602"
  height="29.739502"
  class="icon"
  viewBox="0 0 460.21001 362.53869"
  version="1.1"
  id="svg1"
  sodipodi:docname="avatar.svg"
  inkscape:version="1.3.2 (091e20e, 2023-11-25, custom)"
  xmlns:inkscape="http://www.inkscape.org/namespaces/inkscape"
  xmlns:sodipodi="http://sodipodi.sourceforge.net/DTD/sodipodi-0.dtd"
  xmlns="http://www.w3.org/2000/svg"
  xmlns:svg="http://www.w3.org/2000/svg">
  <defs
    id="defs1" />
  <sodipodi:namedview
    id="namedview1"
    pagecolor="#ffffff"
    bordercolor="#000000"
    borderopacity="0.25"
    inkscape:showpageshadow="2"
    inkscape:pageopacity="0.0"
    inkscape:pagecheckerboard="0"
    inkscape:deskcolor="#d1d1d1"
    inkscape:zoom="19.357143"
    inkscape:cx="18.546125"
    inkscape:cy="14.904059"
    inkscape:window-width="1920"
    inkscape:window-height="1009"
    inkscape:window-x="-8"
    inkscape:window-y="-8"
    inkscape:window-maximized="1"
    inkscape:current-layer="svg1" />
  <path
    d="m 344.71,0.00869026 c -7.1,0.26 -10.8,6.79000004 -4.3,15.88999974 l 24,-3.41 c -6.5,-9.1099997 -14.1,-12.68999974 -19.7,-12.47999974 z m -38,9.10000004 c -3.5,0 -6.6,1.0099997 -9,2.7299997 -7.1,5.1 -7.6,16.8 7.9,28 -8.9,15.9 -29.8,45.8 -60.2,43.2 l 32.1,9.8 c -2.7,1.6 -5.7,3.1 -9.2,4.5 -178.9,-52.4 -268.31,103.3 -268.31,103.3 51.1,69.9 4.1,98.9 4.1,98.9 l 7.81,63 h 28.81 l 3.19,-41 c 0,0 32.5,-3 62.8,-63.3 29,9.8 71,9.1 102.6,3.3 l -4.1,7.1 -37.4,11.1 c 31.2,2.8 58.5,-2.3 78.7,-8.5 -3.4,-15.1 -4.5,-31.5 3.5,-52.8 l 27.9,144.1 h 25.9 c 0,0 -4.6,-75 34.4,-143.5 5,-7.8 9.4,-15.1 13.1,-23.7 l 2,11.1 -10.5,23.2 c 0,0 39,-15.7 29.2,-96 23,3.9 45.6,1.7 66.6,-4.6 5.3,-1.7 9.5,-5.8 11.2,-11 5,-15.6 9.5,-32.5 10.4,-47.3 l -9.7,0.8 c -0.2,-15.3 -21.2,-13.1 -14.9,0.8 l -10.5,0.5 -4.9,-15.5 c 0,0 16.9,-12.3 38.4,-7.1 -0.9,-3.2 -2.2,-6 -3.9,-8.6 -13.8,-20.8 -54.3,-27.8 -122.4,-15.6 -8,-12.24 -17.8,-16.9599997 -25.6,-16.9299997 z m 49.9,33.8299997 c 12.4,1.4 21.9,4.3 30.2,9.6 h -15.9 c -1.6,4.8 -7.5,8.4 -14.5,8.4 -7,0 -12.9,-3.6 -14.5,-8.4 h -15.5 c 4.2,-3 15.3,-9.7 30.2,-9.6 z m 9.6,181.6 c -15.2,30.3 -34.5,33.8 -34.5,33.8 -13.4,37.7 -10.4,71.8 1.8,103.9 h 22.2 c -3.8,-44.7 -3.2,-78.4 10.5,-137.7 z m -251.1,50.3 -17.8,26.7 27.2,25.1 13.9,35.6 h 29.9 l -20.1,-81.8 z"
    fill="#517a3b"
    fill-opacity="1"
    id="path1" />
</svg>